<?xml version="1.0" standalone="no"?><!DOCTYPE svg PUBLIC "-//W3C//DTD SVG 1.1//EN" "http://www.w3.org/Graphics/SVG/1.1/DTD/svg11.dtd"><svg t="1617257985161" class="icon" viewBox="0 0 1024 1024" version="1.1" xmlns="http://www.w3.org/2000/svg" p-id="2450" xmlns:xlink="http://www.w3.org/1999/xlink" width="200" height="200"><defs><style type="text/css"></style></defs><path d="M895.872 131.648c-53.568-55.232-228.608-66.88-366.144-66.88L523.648 64.768C519.168 64.64 500.096 64 472.512 64c-103.744 0-241.664 7.872-309.12 45.248C64.512 163.968 61.376 406.272 64.768 509.568c-3.392 104.96-0.256 350.464 98.624 405.248C230.784 952.128 368.64 960 472.384 960c27.584 0 46.72-0.64 51.264-0.768l6.144 0c137.472 0 312.512-11.648 366.08-66.88 60.352-62.272 64.96-286.464 64.064-380.352C960.832 418.048 956.224 193.92 895.872 131.648zM186.048 149.312C248.32 114.752 394.88 109.952 472.512 109.952c30.528 0 50.368 0.704 50.368 0.704s2.432 0 6.784 0c43.904 0 283.904 2.368 332.8 52.736 53.888 55.68 51.2 348.608 51.2 348.608s0.192 24.576-0.768 60.352c-1.6-1.344-3.2-2.816-5.44-3.136l-173.312-23.808-67.264-298.368L666.88 246.464c-3.2-13.888-14.016-25.472-28.8-29.056-20.8-4.928-41.6 7.936-46.592 28.8l-95.36 401.856L406.208 367.872 406.08 367.36C402.56 356.608 393.728 347.84 381.888 344.576 363.328 339.648 344.192 350.656 339.2 369.344L290.816 550.016l-174.08 19.2C114.496 569.408 112.576 570.624 110.848 572.032 110.336 536.96 111.04 512.256 111.168 509.568 110.848 499.904 100.736 196.544 186.048 149.312zM862.528 860.608c-48.896 50.368-288.768 52.736-332.736 52.736-4.416 0-6.848 0-6.848 0s-19.968 0.704-50.496 0.704c-77.76 0-224.192-4.8-286.4-39.296-58.752-32.576-72.256-188.736-74.816-286.144 1.664 1.344 3.264 2.816 5.568 3.072l200.448 22.208c13.888 1.408 27.264-7.168 31.104-20.992l1.024-3.52 25.856-91.008 93.632 286.016c3.52 10.56 12.16 19.392 23.744 22.336 18.048 4.608 36.544-6.272 41.216-24.384l0.064-0.256 92.352-359.488 36.608 166.528 1.216 4.928c3.712 16.96 19.968 28.416 37.504 26.048l206.016-28.288c1.856-0.256 3.392-1.344 4.864-2.368C909.248 680.256 898.56 823.36 862.528 860.608z" p-id="2451"></path></svg>